<?xml version="1.0" encoding="utf-8"?>
<?xml-stylesheet type="text/xsl" href="rss1.xsl"?>
<rss version="2.0" xmlns:atom="http://www.w3.org/2005/Atom" xmlns:content="http://purl.org/rss/1.0/modules/content/" xmlns:dc="http://purl.org/dc/elements/1.1/" xmlns:media="http://search.yahoo.com/mrss/">
<channel>
 <title>Getty</title>
 <link>http://www.gettyimg.com/</link>
 <atom:link href="http://www.gettyimg.com/" rel="self" type="application/rss+xml" />

 
                <item>
                <title><![CDATA[【Cinema Center】MOVIE - I, Robot (2004) (Widescreen DVDRip DivX)]]></title>
                <link><![CDATA[https://sharemania.us/threads/i-robot-2004-widescreen-dvdrip-divx.234147/]]></link>
                <description><![CDATA[<article>
<blockquote class="messageText SelectQuoteContainer ugc baseHtml">
<b>Release Name</b><br>
I.Robot.2004.WS.DVDRip.DivX<br>
<br>
<b>Screenshot</b><br>
<img src="https://i.ibb.co/tJ60Lh0/I-Robot-2004-WS-DVDRip-Div-X.jpg" class="bbCodeImage LbImage" alt="[​IMG]" data-url="https://i.ibb.co/tJ60Lh0/I-Robot-2004-WS-DVDRip-Div-X.jpg" style=""><br>
<br>
<div class="ToggleTriggerAnchor bbCodeSpoilerContainer">
<button type="button" class="button bbCodeSpoilerButton ToggleTrigger Tooltip JsOnly" data-target="> .SpoilerTarget"><span>Spoiler: <span class="SpoilerTitle">Media Information</span></span></button>
<div class="SpoilerTarget bbCodeSpoilerText">General<br>
Unique ID : 32105255814879152294948377726384563450 (0x18273F52A1B36410703EEB5820E364FA)<br>
Complete name : I.Robot.2004.WS.DVDRip.DivX.mkv<br>
Format : Matroska<br>
Format version : Version 4<br>
File size : 6.24 GiB<br>
Duration : 1 h 54 min<br>
Overall bit rate mode : Variable<br>
Overall bit rate : 7 791 kb/s<br>
Frame rate : 23.976 FPS<br>
Movie name : I, Robot<br>
Encoded date : 2004-12-14 17:00:00 UTC<br>
Writing application : MakeMKV v1.17.5 darwin(arm64-release)<br>
Writing library : libmakemkv v1.17.5 (1.3.10/1.5.2) darwin(arm64-release)<br>
<br>
Video<br>
ID : 1<br>
ID in the original source medium : 224 (0xE0)<br>
Format : MPEG Video<br>
Format version : Version 2<br>
Format profile : Main@Main<br>
Format settings : CustomMatrix / BVOP<br>
Format settings, BVOP : Yes<br>
Format settings, Matrix : Custom<br>
Format settings, GOP : Variable<br>
Codec ID : V_MPEG2<br>
Codec ID/Info : MPEG 1 or 2 Video<br>
Duration : 1 h 54 min<br>
Bit rate mode : Variable<br>
Bit rate : 5 999 kb/s<br>
Maximum bit rate : 9 800 kb/s<br>
Width : 720 pixels<br>
Height : 480 pixels<br>
Display aspect ratio : 16:9<br>
Frame rate mode : Variable<br>
Frame rate : 23.976 FPS<br>
Standard : Component<br>
Color space : YUV<br>
Chroma subsampling : 4:2:0<br>
Bit depth : 8 bits<br>
Scan type : Progressive<br>
Scan order : 2:3 Pulldown<br>
Compression mode : Lossy<br>
Bits/(Pixel*Frame) : 0.724<br>
Time code of first frame : 01:00:02;00<br>
Time code source : Group of pictures header<br>
Stream size : 4.81 GiB (77%)<br>
Language : English<br>
Default : No<br>
Forced : No<br>
Color primaries : BT.601 NTSC<br>
Transfer characteristics : BT.601<br>
Matrix coefficients : BT.601<br>
Original source medium : DVD-Video<br>
<br>
Audio #1<br>
ID : 2<br>
ID in the original source medium : 189 (0xBD)128 (0x80)<br>
Format : AC-3<br>
Format/Info : Audio Coding 3<br>
Commercial name : Dolby Digital<br>
Codec ID : A_AC3<br>
Duration : 1 h 54 min<br>
Bit rate mode : Constant<br>
Bit rate : 448 kb/s<br>
Channel(s) : 6 channels<br>
Channel layout : L R C LFE Ls Rs<br>
Sampling rate : 48.0 kHz<br>
Frame rate : 31.250 FPS (1536 SPF)<br>
Compression mode : Lossy<br>
Stream size : 368 MiB (6%)<br>
Title : Surround 5.1<br>
Language : English (US)<br>
Service kind : Complete Main<br>
Default : Yes<br>
Forced : No<br>
Original source medium : DVD-Video<br>
<br>
Audio #2<br>
ID : 3<br>
ID in the original source medium : 189 (0xBD)137 (0x89)<br>
Format : DTS<br>
Format/Info : Digital Theater Systems<br>
Codec ID : A_DTS<br>
Duration : 1 h 54 min<br>
Bit rate mode : Constant<br>
Bit rate : 754 kb/s<br>
Channel(s) : 6 channels<br>
Channel layout : C L R Ls Rs LFE<br>
Sampling rate : 48.0 kHz<br>
Frame rate : 93.750 FPS (512 SPF)<br>
Bit depth : 16 bits<br>
Compression mode : Lossy<br>
Stream size : 619 MiB (10%)<br>
Title : Surround 5.1<br>
Language : English<br>
Default : No<br>
Forced : No<br>
Original source medium : DVD-Video<br>
<br>
Audio #3<br>
ID : 4<br>
ID in the original source medium : 189 (0xBD)130 (0x82)<br>
Format : AC-3<br>
Format/Info : Audio Coding 3<br>
Commercial name : Dolby Digital<br>
Format settings : Dolby Surround<br>
Codec ID : A_AC3<br>
Duration : 1 h 54 min<br>
Bit rate mode : Constant<br>
Bit rate : 192 kb/s<br>
Channel(s) : 2 channels<br>
Channel layout : L R<br>
Sampling rate : 48.0 kHz<br>
Frame rate : 31.250 FPS (1536 SPF)<br>
Compression mode : Lossy<br>
Stream size : 158 MiB (2%)<br>
Title : Stereo<br>
Language : Spanish (Latin America)<br>
Service kind : Complete Main<br>
Default : No<br>
Forced : No<br>
Original source medium : DVD-Video<br>
<br>
Audio #4<br>
ID : 5<br>
ID in the original source medium : 189 (0xBD)131 (0x83)<br>
Format : AC-3<br>
Format/Info : Audio Coding 3<br>
Commercial name : Dolby Digital<br>
Format settings : Dolby Surround<br>
Codec ID : A_AC3<br>
Duration : 1 h 54 min<br>
Bit rate mode : Constant<br>
Bit rate : 192 kb/s<br>
Channel(s) : 2 channels<br>
Channel layout : L R<br>
Sampling rate : 48.0 kHz<br>
Frame rate : 31.250 FPS (1536 SPF)<br>
Compression mode : Lossy<br>
Stream size : 158 MiB (2%)<br>
Title : Stereo<br>
Language : French (FR)<br>
Service kind : Complete Main<br>
Default : No<br>
Forced : No<br>
Original source medium : DVD-Video<br>
<br>
Audio #5<br>
ID : 6<br>
ID in the original source medium : 189 (0xBD)132 (0x84)<br>
Format : AC-3<br>
Format/Info : Audio Coding 3<br>
Commercial name : Dolby Digital<br>
Format settings : Dolby Surround<br>
Codec ID : A_AC3<br>
Duration : 1 h 54 min<br>
Bit rate mode : Constant<br>
Bit rate : 192 kb/s<br>
Channel(s) : 2 channels<br>
Channel layout : L R<br>
Sampling rate : 48.0 kHz<br>
Frame rate : 31.250 FPS (1536 SPF)<br>
Compression mode : Lossy<br>
Stream size : 158 MiB (2%)<br>
Title : Stereo<br>
Language : English<br>
Service kind : Complete Main<br>
Default : No<br>
Forced : No<br>
Original source medium : DVD-Video<br>
<br>
Text #1<br>
ID : 7<br>
ID in the original source medium : 189 (0xBD)32 (0x20)<br>
Format : VobSub<br>
Codec ID : S_VOBSUB<br>
Codec ID/Info : Picture based subtitle format used on DVDs<br>
Duration : 1 h 54 min<br>
Bit rate : 2 809 b/s<br>
Frame rate : 0.180 FPS<br>
Count of elements : 1237<br>
Stream size : 2.30 MiB (0%)<br>
Language : English<br>
Default : Yes<br>
Forced : No<br>
Original source medium : DVD-Video<br>
<br>
Text #2<br>
ID : 8<br>
ID in the original source medium : 189 (0xBD)34 (0x22)<br>
Format : VobSub<br>
Codec ID : S_VOBSUB<br>
Codec ID/Info : Picture based subtitle format used on DVDs<br>
Duration : 1 h 54 min<br>
Bit rate : 2 422 b/s<br>
Frame rate : 0.165 FPS<br>
Count of elements : 1135<br>
Stream size : 1.99 MiB (0%)<br>
Language : Spanish<br>
Default : No<br>
Forced : No<br>
Original source medium : DVD-Video<br>
<br>
Text #3<br>
ID : 9<br>
ID in the original source medium : 189 (0xBD)36 (0x24)<br>
Format : VobSub<br>
Codec ID : S_VOBSUB<br>
Codec ID/Info : Picture based subtitle format used on DVDs<br>
Duration : 1 h 54 min<br>
Bit rate : 34 b/s<br>
Frame rate : 0.005 FPS<br>
Count of elements : 36<br>
Stream size : 29.0 KiB (0%)<br>
Language : Spanish<br>
Default : No<br>
Forced : No<br>
Original source medium : DVD-Video<br>
<br>
Text #4<br>
ID : 10<br>
ID in the original source medium : 189 (0xBD)38 (0x26)<br>
Format : VobSub<br>
Codec ID : S_VOBSUB<br>
Codec ID/Info : Picture based subtitle format used on DVDs<br>
Duration : 1 h 54 min<br>
Bit rate : 57 b/s<br>
Frame rate : 0.006 FPS<br>
Count of elements : 44<br>
Stream size : 48.2 KiB (0%)<br>
Language : French<br>
Default : No<br>
Forced : No<br>
Original source medium : DVD-Video<br>
<br>
Text #5<br>
ID : 11<br>
ID in the original source medium : 224 (0xE0)<br>
Format : UTF-8<br>
Codec ID : S_TEXT/UTF8<br>
Codec ID/Info : UTF-8 Plain Text<br>
Duration : 1 h 43 min<br>
Bit rate : 110 b/s<br>
Frame rate : 0.198 FPS<br>
Count of elements : 1224<br>
Stream size : 83.5 KiB (0%)<br>
Language : English<br>
Default : No<br>
Forced : No<br>
Original source medium : DVD-Video<br>
<br>
Menu<br>
00:00:00.000 : en:Chapter 01<br>
00:01:47.941 : en:Chapter 02<br>
00:03:30.243 : en:Chapter 03<br>
00:06:18.544 : en:Chapter 04<br>
00:07:57.510 : en:Chapter 05<br>
00:10:19.785 : en:Chapter 06<br>
00:12:11.230 : en:Chapter 07<br>
00:15:35.301 : en:Chapter 08<br>
00:17:48.067 : en:Chapter 09<br>
00:22:51.870 : en:Chapter 10<br>
00:26:14.072 : en:Chapter 11<br>
00:26:59.284 : en:Chapter 12<br>
00:33:23.167 : en:Chapter 13<br>
00:36:03.661 : en:Chapter 14<br>
00:41:23.514 : en:Chapter 15<br>
00:46:08.632 : en:Chapter 16<br>
00:49:06.109 : en:Chapter 17<br>
00:52:14.498 : en:Chapter 18<br>
00:55:22.268 : en:Chapter 19<br>
00:58:31.708 : en:Chapter 20<br>
01:00:06.769 : en:Chapter 21<br>
01:01:08.665 : en:Chapter 22<br>
01:07:56.105 : en:Chapter 23<br>
01:08:18.094 : en:Chapter 24<br>
01:10:24.386 : en:Chapter 25<br>
01:13:17.226 : en:Chapter 26<br>
01:16:53.809 : en:Chapter 27<br>
01:18:38.880 : en:Chapter 28<br>
01:20:14.309 : en:Chapter 29<br>
01:21:19.708 : en:Chapter 30<br>
01:21:57.445 : en:Chapter 31<br>
01:27:29.577 : en:Chapter 32<br>
01:28:57.665 : en:Chapter 33<br>
01:32:59.740 : en:Chapter 34<br>
01:34:45.179 : en:Chapter 35<br>
01:38:09.550 : en:Chapter 36<br>
01:41:10.898 : en:Chapter 37<br>
01:44:15.415 : en:Chapter 38<br>
01:45:02.963 : en:Chapter 39</div>
</div>
<div class="messageTextEndMarker">&nbsp;</div>
</blockquote>
</article>]]></description>
                <author><![CDATA[Austin Zimmermann]]></author>
                </item>

                </channel></rss>